<svg width="32" height="33" viewBox="0 0 32 33" fill="none" xmlns="http://www.w3.org/2000/svg">
<g id="Group">
<path id="Path" d="M7.99666 18.038C5.54631 19.1371 3.995 20.7271 3.995 22.5025C3.995 25.8172 9.36923 28.505 16 28.505C22.6308 28.505 28.005 25.8172 28.005 22.5025C28.005 20.7271 26.4537 19.1371 24.0033 18.038" stroke="#8E26C0" stroke-width="1.5" stroke-linecap="round" stroke-linejoin="round"/>
<path id="Path_2" d="M20.8714 23.1694C19.4259 24.11 17.723 24.5763 16 24.5033C14.277 24.5763 12.5741 24.11 11.1287 23.1694" stroke="#8E26C0" stroke-width="1.5" stroke-linecap="round" stroke-linejoin="round"/>
<path id="Path_3" d="M18.9346 5.71284C20.1237 6.90193 20.4795 8.69026 19.836 10.2439C19.1924 11.7976 17.6764 12.8106 15.9947 12.8106C14.313 12.8106 12.797 11.7976 12.1534 10.2439C11.5099 8.69026 11.8657 6.90193 13.0548 5.71284C13.8344 4.93283 14.8919 4.49458 15.9947 4.49458C17.0975 4.49458 18.1551 4.93283 18.9346 5.71284" stroke="#8E26C0" stroke-width="1.5" stroke-linecap="round" stroke-linejoin="round"/>
<path id="Path_4" d="M16 12.8078V20.5017" stroke="#8E26C0" stroke-width="1.5" stroke-linecap="round" stroke-linejoin="round"/>
</g>
</svg>
